HIERARCHY
ROOT Bone
{
	OFFSET 0.000000 -0.225051 -0.001106
	CHANNELS 6 Xposition Yposition Zposition Xrotation Yrotation Zrotation
	JOINT Bone.004
	{
		OFFSET -0.000000 0.057074 0.003869
		CHANNELS 3 Xrotation Yrotation Zrotation
		JOINT Bone.002
		{
			OFFSET -0.000000 0.057074 -0.000000
			CHANNELS 3 Xrotation Yrotation Zrotation
			JOINT Bone.006
			{
				OFFSET -0.000000 0.057074 -0.000790
				CHANNELS 3 Xrotation Yrotation Zrotation
				JOINT Bone.001
				{
					OFFSET -0.000000 0.057074 -0.000395
					CHANNELS 3 Xrotation Yrotation Zrotation
					JOINT Bone.005
					{
						OFFSET -0.000000 0.057074 -0.000790
						CHANNELS 3 Xrotation Yrotation Zrotation
						JOINT Bone.003
						{
							OFFSET -0.000000 0.057074 -0.001974
							CHANNELS 3 Xrotation Yrotation Zrotation
							JOINT Bone.007
							{
								OFFSET -0.000000 0.057074 -0.000790
								CHANNELS 3 Xrotation Yrotation Zrotation
								End Site
								{
									OFFSET -0.000000 0.057074 -0.001974
								}
							}
						}
					}
					JOINT Bone.009
					{
						OFFSET -0.000000 0.013287 0.092672
						CHANNELS 6 Xposition Yposition Zposition Xrotation Yrotation Zrotation
						End Site
						{
							OFFSET -0.000000 0.059086 -0.002472
						}
					}
				}
				JOINT Bone.010
				{
					OFFSET -0.000000 0.011274 0.094749
					CHANNELS 6 Xposition Yposition Zposition Xrotation Yrotation Zrotation
					End Site
					{
						OFFSET -0.000000 0.059086 -0.002472
					}
				}
			}
			JOINT Bone.008
			{
				OFFSET -0.000000 0.009262 0.096432
				CHANNELS 6 Xposition Yposition Zposition Xrotation Yrotation Zrotation
				End Site
				{
					OFFSET -0.000000 0.059086 -0.002472
				}
			}
		}
	}
}
MOTION
Frames: 14
Frame Time: 0.016667
0.000000 -0.225051 -0.001106 0.000000 -0.000000 -0.000000 0.000000 -0.000000 -0.000000 0.000000 -0.000000 0.166634 -0.000000 -0.000000 0.166634 -0.000000 0.000000 -0.166634 -0.000000 -0.000000 -0.166634 0.000428 0.009782 -5.024645 0.000194 0.002222 -10.012177 -0.000000 0.013287 0.092672 -0.000000 0.000000 0.000000 -0.000000 0.011274 0.094749 -0.000000 -0.000000 -0.000000 -0.000000 0.009262 0.096432 0.000000 0.000000 0.000000 
0.000000 -0.225051 -0.001106 0.000000 -0.000000 -0.000000 0.000000 -0.000000 -0.000000 0.000000 -0.000000 0.333278 0.000000 -0.000000 0.333278 -0.000000 0.000000 -0.333278 -0.000000 -0.000000 -0.333278 0.000415 0.009359 -5.096661 0.000172 0.001964 -10.048264 -0.000000 0.013287 0.092672 0.000000 0.000000 0.000000 -0.000000 0.011274 0.094749 0.000000 0.000000 0.000000 -0.000000 0.009262 0.096432 0.000000 0.000000 0.000000 
0.000000 -0.225051 -0.001106 0.000000 -0.000000 -0.000000 0.000000 -0.000000 -0.000000 0.000000 -0.000000 0.499930 0.000000 -0.000000 0.499930 -0.000000 0.000000 -0.499930 -0.000000 0.000000 -0.499930 0.000386 0.008509 -5.215697 0.000133 0.001515 -10.107864 -0.000000 0.013287 0.092672 -0.000000 0.000000 0.000000 -0.000000 0.011274 0.094749 0.000000 -0.000000 -0.000000 -0.000000 0.009262 0.096432 0.000000 -0.000000 0.000000 
0.000000 -0.225051 -0.001106 0.000000 -0.000000 -0.000000 0.000000 -0.000000 -0.000000 0.000000 -0.000000 0.666589 0.000000 -0.000000 0.666589 -0.000000 0.000000 -0.666589 0.000000 -0.000000 -0.666589 0.000341 0.007287 -5.380692 0.000078 0.000886 -10.190490 -0.000000 0.013287 0.092672 0.000000 -0.000000 -0.000000 -0.000000 0.011274 0.094749 0.000000 -0.000000 -0.000000 -0.000000 0.009262 0.096432 0.000000 -0.000000 -0.000000 
0.000000 -0.225051 -0.001106 0.000000 -0.000000 -0.000000 0.000000 -0.000000 -0.000000 0.000000 0.000000 0.833253 0.000000 -0.000000 0.833253 -0.000000 -0.000000 -0.833253 0.000000 -0.000000 -0.833253 0.000280 0.005753 -5.590511 -0.000001 0.000000 -10.295449 -0.000000 0.013287 0.092672 -0.000000 0.000000 -0.000000 -0.000000 0.011274 0.094749 -0.000000 0.000000 -0.000000 -0.000000 0.009262 0.096432 0.000000 -0.000000 0.000000 
0.000000 -0.225051 -0.001106 0.000000 -0.000000 -0.000000 0.000000 -0.000000 -0.000000 0.000000 0.000000 0.999921 0.000000 -0.000000 0.999920 0.000000 -0.000000 -0.999921 -0.000000 0.000000 -0.999920 0.000202 0.003974 -5.843375 -0.000030 -0.000313 -10.421957 -0.000000 0.013287 0.092672 0.000000 0.000000 0.000000 -0.000000 0.011274 0.094749 0.000000 0.000000 -0.000000 -0.000000 0.009262 0.096432 0.000000 0.000000 0.000000 
0.000000 -0.225051 -0.001106 0.000000 -0.000000 -0.000000 0.000000 -0.000000 -0.000000 0.000000 -0.000000 1.166591 0.000000 -0.000000 1.166591 -0.000000 0.000000 -1.166591 -0.000000 0.000000 -1.166591 0.000108 0.002028 -6.137349 -0.000001 0.000000 -10.569036 -0.000000 0.013287 0.092672 0.000000 0.000000 0.000000 -0.000000 0.011274 0.094749 -0.000000 0.000000 -0.000000 -0.000000 0.009262 0.096432 0.000000 0.000000 0.000000 
0.000000 -0.225051 -0.001106 0.000000 -0.000000 -0.000000 0.000000 -0.000000 -0.000000 0.000000 -0.000000 1.333263 0.000000 -0.000000 1.333263 -0.000000 0.000000 -1.333263 0.000000 0.000000 -1.333263 -0.000001 0.000000 -6.470167 -0.000001 0.000000 -10.735508 -0.000000 0.013287 0.092672 -0.000000 0.000000 0.000000 -0.000000 0.011274 0.094749 0.000000 0.000000 0.000000 -0.000000 0.009262 0.096432 0.000000 0.000000 0.000000 
0.000000 -0.225051 -0.001106 0.000000 -0.000000 -0.000000 0.000000 -0.000000 -0.000000 0.000000 0.000000 1.499935 0.000000 -0.000000 1.499935 -0.000000 -0.000000 -1.499935 -0.000000 -0.000000 -1.499936 -0.000037 -0.000599 -6.839237 -0.000001 0.000000 -10.920075 -0.000000 0.013287 0.092672 0.000000 0.000000 0.000000 -0.000000 0.011274 0.094749 0.000000 -0.000000 -0.000000 -0.000000 0.009262 0.096432 0.000000 -0.000000 0.000000 
0.000000 -0.225051 -0.001106 0.000000 -0.000000 -0.000000 0.000000 -0.000000 -0.000000 0.000000 -0.000000 1.666607 0.000000 0.000000 1.666608 -0.000000 0.000000 -1.666608 -0.000000 -0.000000 -1.666608 -0.000001 0.000000 -7.241562 -0.000001 0.000000 -11.121240 -0.000000 0.013287 0.092672 -0.000000 0.000000 0.000000 -0.000000 0.011274 0.094749 0.000000 -0.000000 -0.000000 -0.000000 0.009262 0.096432 0.000000 0.000000 0.000000 
0.000000 -0.225051 -0.001106 0.000000 -0.000000 -0.000000 0.000000 -0.000000 -0.000000 0.000000 -0.000000 1.833278 0.000000 0.000000 1.833278 -0.000000 0.000000 -1.833278 0.000000 -0.000000 -1.833280 -0.000001 0.000000 -7.673771 -0.000001 0.000000 -11.337320 -0.000000 0.013287 0.092672 0.000000 -0.000000 -0.000000 -0.000000 0.011274 0.094749 0.000000 0.000000 0.000000 -0.000000 0.009262 0.096432 0.000000 0.000000 -0.000000 
0.000000 -0.225051 -0.001106 0.000000 -0.000000 -0.000000 0.000000 -0.000000 -0.000000 0.000000 -0.000000 1.999948 0.000000 0.000000 1.999949 -0.000000 0.000000 -1.999947 0.000000 -0.000000 -1.999948 -0.000002 0.000000 -8.132123 -0.000001 0.000000 -11.566447 -0.000000 0.013287 0.092672 0.000000 -0.000000 0.000000 -0.000000 0.011274 0.094749 -0.000000 0.000000 0.000001 -0.000000 0.009262 0.096432 0.000000 0.000000 0.000000 
0.000000 -0.225051 -0.001106 0.000000 -0.000000 -0.000000 0.000000 -0.000000 -0.000000 0.000000 -0.000000 2.166615 0.000000 -0.000000 2.166614 -0.000000 0.000000 -2.166614 -0.000000 0.000000 -2.166615 -0.000001 0.000000 -8.612506 -0.000001 0.000000 -11.806558 -0.000000 0.013287 0.092672 -0.000000 0.000000 0.000000 -0.000000 0.011274 0.094749 0.000000 -0.000000 0.000000 -0.000000 0.009262 0.096432 0.000000 0.000000 -0.000000 
0.000000 -0.225051 -0.001106 0.000000 -0.000000 -0.000000 0.000000 -0.000000 -0.000000 0.000000 -0.000000 2.333292 0.000000 -0.000000 2.333293 -0.000000 0.000000 -2.333292 -0.000000 0.000000 -2.333293 -0.000002 0.000000 -9.110440 -0.000001 0.000000 -12.055425 -0.000000 0.013287 0.092672 0.000000 -0.000000 -0.000000 -0.000000 0.011274 0.094749 -0.000000 0.000000 0.000001 -0.000000 0.009262 0.096432 0.000000 -0.000000 -0.000000 
